<?xml version="1.0" encoding="UTF-8"?>
<svg width="74px" height="74px" viewBox="0 0 74 74" version="1.1" xmlns="http://www.w3.org/2000/svg" xmlns:xlink="http://www.w3.org/1999/xlink">
    <!-- Generator: Sketch 42 (36781) - http://www.bohemiancoding.com/sketch -->
    <title>Icon</title>
    <desc>Created with Sketch.</desc>
    <defs>
        <polygon id="path-1" points="11.6848 0.486 0 0.486 0 30.182 23.3696 30.182 23.3696 0.486 11.6848 0.486"></polygon>
        <polygon id="path-3" points="0.0492 13 12.3482 13 12.3482 0.7005 0.0492 0.7005"></polygon>
    </defs>
    <g id="website" stroke="none" stroke-width="1" fill="none" fill-rule="evenodd">
        <g id="3" transform="translate(-1008.000000, -395.000000)">
            <g id="03-PRODUCT" transform="translate(-311.000000, -158.000000)">
                <g id="Icon" transform="translate(1319.000000, 553.000000)">
                    <rect id="Rectangle-9" fill="#FCFDFF" x="0" y="0" width="74" height="74" rx="37"></rect>
                    <g id="Document-Done" transform="translate(27.000000, 22.000000)">
                        <g>
                            <polygon id="Fill-1" fill="#FFFFFF" points="17.426 30.9047 26.751 30.9047 26.751 22.8007 17.426 22.8007"></polygon>
                            <g id="Group-20" transform="translate(0.000000, 0.513700)">
                                <path d="M4.8662,11.9277 C4.8662,12.3337 5.1962,12.6637 5.6022,12.6637 L17.7672,12.6637 C18.1742,12.6637 18.5042,12.3337 18.5042,11.9277 C18.5042,11.5217 18.1742,11.1907 17.7672,11.1907 L5.6022,11.1907 C5.1962,11.1907 4.8662,11.5217 4.8662,11.9277" id="Fill-2" fill="#3A5273"></path>
                                <path d="M5.6025,8.7715 L10.4685,8.7715 C10.8745,8.7715 11.2055,8.4415 11.2055,8.0355 C11.2055,7.6285 10.8745,7.2985 10.4685,7.2985 L5.6025,7.2985 C5.1965,7.2985 4.8665,7.6285 4.8665,8.0355 C4.8665,8.4415 5.1965,8.7715 5.6025,8.7715" id="Fill-4" fill="#3A5273"></path>
                                <path d="M17.7676,15.084 L5.6026,15.084 C5.1966,15.084 4.8666,15.414 4.8666,15.82 C4.8666,16.227 5.1966,16.557 5.6026,16.557 L17.7676,16.557 C18.1736,16.557 18.5036,16.227 18.5036,15.82 C18.5036,15.414 18.1736,15.084 17.7676,15.084" id="Fill-6" fill="#3A5273"></path>
                                <path d="M15.7021,18.9766 L5.6021,18.9766 C5.1961,18.9766 4.8661,19.3066 4.8661,19.7126 C4.8661,20.1196 5.1961,20.4496 5.6021,20.4496 L15.7021,20.4496 C16.1081,20.4496 16.4381,20.1196 16.4381,19.7126 C16.4381,19.3066 16.1081,18.9766 15.7021,18.9766" id="Fill-8" fill="#3A5273"></path>
                                <path d="M12.5146,22.8691 L5.7376,22.8691 C5.3306,22.8691 5.0006,23.2001 5.0006,23.6061 C5.0006,24.0121 5.3306,24.3421 5.7376,24.3421 L12.5146,24.3421 C12.9206,24.3421 13.2506,24.0121 13.2506,23.6061 C13.2506,23.2001 12.9206,22.8691 12.5146,22.8691" id="Fill-10" fill="#3A5273"></path>
                                <g id="Group-14">
                                    <mask id="mask-2" fill="white">
                                        <use xlink:href="#path-1"></use>
                                    </mask>
                                    <g id="Clip-13"></g>
                                    <path d="M16.5576,3.001 L20.8556,7.298 L16.5576,7.298 L16.5576,3.001 Z M17.3006,28.709 L1.4736,28.709 L1.4736,1.959 L15.0846,1.959 L15.0846,8.772 L21.8966,8.772 L21.8966,21.235 C22.1356,21.203 22.3466,21.048 22.5946,21.048 C22.8476,21.048 23.1266,21.515 23.3696,21.548 L23.3696,7.73 L16.1256,0.486 L-0.0004,0.486 L-0.0004,30.182 L17.8756,30.182 C17.6166,29.727 17.4216,29.233 17.3006,28.709 L17.3006,28.709 Z" id="Fill-12" fill="#3A5273" mask="url(#mask-2)"></path>
                                </g>
                                <g id="Group-17" transform="translate(16.000000, 20.000000)">
                                    <mask id="mask-4" fill="white">
                                        <use xlink:href="#path-3"></use>
                                    </mask>
                                    <g id="Clip-16"></g>
                                    <path d="M6.1982,2.0005 C3.5242,2.0005 1.3492,4.1765 1.3492,6.8505 C1.3492,9.5245 3.5242,11.7005 6.1982,11.7005 C8.8722,11.7005 11.0482,9.5245 11.0482,6.8505 C11.0482,4.1765 8.8722,2.0005 6.1982,2.0005 M6.1982,13.0005 C2.8072,13.0005 0.0492,10.2415 0.0492,6.8505 C0.0492,3.4595 2.8072,0.7005 6.1982,0.7005 C9.5902,0.7005 12.3482,3.4595 12.3482,6.8505 C12.3482,10.2415 9.5902,13.0005 6.1982,13.0005" id="Fill-15" fill="#82D4BB" mask="url(#mask-4)"></path>
                                </g>
                                <polygon id="Fill-18" fill="#82D4BB" points="24.2609 24.8319 21.5989 27.5429 20.2349 26.1739 19.5039 26.9049 21.6539 29.0499 25.1079 25.7009"></polygon>
                            </g>
                        </g>
                    </g>
                </g>
            </g>
        </g>
    </g>
</svg>