<?xml version="1.0" encoding="UTF-8"?>
<svg width="74px" height="74px" viewBox="0 0 74 74" version="1.1" xmlns="http://www.w3.org/2000/svg" xmlns:xlink="http://www.w3.org/1999/xlink">
    <!-- Generator: Sketch 42 (36781) - http://www.bohemiancoding.com/sketch -->
    <title>Icon</title>
    <desc>Created with Sketch.</desc>
    <defs></defs>
    <g id="website" stroke="none" stroke-width="1" fill="none" fill-rule="evenodd">
        <g id="5" transform="translate(-1008.000000, -405.000000)">
            <g id="03-PRODUCT" transform="translate(-311.000000, -148.000000)">
                <g id="Icon" transform="translate(1319.000000, 553.000000)">
                    <rect id="Rectangle-9" fill="#FCFDFF" x="0" y="0" width="74" height="74" rx="37"></rect>
                    <g id="Onvestments" transform="translate(22.000000, 21.000000)">
                        <g>
                            <g id="Group-3" transform="translate(1.000000, 12.139700)" fill="#3A5273">
                                <path d="M9.4992,17.4321 L9.4992,8.8081 C9.4992,8.7161 9.5742,8.6411 9.6662,8.6411 L12.4352,8.6411 C12.5262,8.6411 12.6022,8.7161 12.6022,8.8081 L12.6022,17.4321 C12.6022,17.5241 12.5262,17.5991 12.4352,17.5991 L9.6662,17.5991 C9.5742,17.5991 9.4992,17.5241 9.4992,17.4321 M2.7432,17.4321 L2.7432,12.8621 C2.7432,12.7691 2.8182,12.6941 2.9102,12.6941 L5.6792,12.6941 C5.7712,12.6941 5.8472,12.7691 5.8472,12.8621 L5.8472,17.4321 C5.8472,17.5241 5.7712,17.5991 5.6792,17.5991 L2.9102,17.5991 C2.8182,17.5991 2.7432,17.5241 2.7432,17.4321 M23.0112,17.4321 L23.0112,1.6021 C23.0112,1.5101 23.0862,1.4351 23.1782,1.4351 L25.9462,1.4351 C26.0382,1.4351 26.1132,1.5101 26.1132,1.6021 L26.1132,17.4321 C26.1132,17.5241 26.0382,17.5991 25.9462,17.5991 L23.1782,17.5991 C23.0862,17.5991 23.0112,17.5241 23.0112,17.4321 M16.2552,17.4321 L16.2552,5.2051 C16.2552,5.1131 16.3302,5.0381 16.4222,5.0381 L19.1902,5.0381 C19.2822,5.0381 19.3572,5.1131 19.3572,5.2051 L19.3572,17.4321 C19.3572,17.5241 19.2822,17.5991 19.1902,17.5991 L16.4222,17.5991 C16.3302,17.5991 16.2552,17.5241 16.2552,17.4321 M27.5152,17.6461 L27.5152,0.7011 C27.5152,0.3331 27.2162,0.0341 26.8482,0.0341 L22.2772,0.0341 C21.9092,0.0341 21.6092,0.3331 21.6092,0.7011 L21.6092,17.5991 L20.7592,17.5991 L20.7592,4.3051 C20.7592,3.9361 20.4602,3.6371 20.0922,3.6371 L15.5212,3.6371 C15.1532,3.6371 14.8532,3.9361 14.8532,4.3051 L14.8532,17.5991 L14.0032,17.5991 L14.0032,7.9081 C14.0032,7.5391 13.7042,7.2401 13.3362,7.2401 L8.7662,7.2401 C8.3972,7.2401 8.0992,7.5391 8.0992,7.9081 L8.0992,17.5991 L7.2472,17.5991 L7.2472,11.9611 C7.2472,11.5931 6.9482,11.2941 6.5802,11.2941 L2.0102,11.2941 C1.6422,11.2941 1.3432,11.5931 1.3432,11.9611 L1.3432,17.5991 L1.1422,17.5991 C0.7362,17.5991 0.4412,17.8941 0.4412,18.3001 C0.4412,18.7051 0.7362,19.0001 1.1422,19.0001 L2.0102,19.0001 L6.5802,19.0001 L8.7662,19.0001 L14.0032,19.0001 L15.5212,19.0001 L20.0922,19.0001 L22.2772,19.0001 L26.8482,19.0001 L27.2652,19.0001 C27.6702,19.0001 27.9652,18.7051 27.9652,18.3001 C27.9652,17.9841 27.7842,17.7411 27.5152,17.6461" id="Fill-1"></path>
                            </g>
                            <path d="M28.3859,4.0069 C28.3639,3.0659 28.3619,1.3219 28.3619,1.3219 C28.3619,1.3219 26.4129,1.3979 25.4669,1.4319 C24.3559,1.4499 24.4099,0.1799 25.4179,0.1329 C26.1079,0.0999 27.8319,0.0369 28.8539,0.0009 C29.2899,-0.0151 29.6519,0.3279 29.6559,0.7639 C29.6659,1.8179 29.6819,3.5959 29.6869,3.9949 C29.6519,4.9479 28.4079,4.9479 28.3859,4.0069" id="Fill-4" fill="#82D4BB"></path>
                            <path d="M6.922,14.1719 C6.523,14.1719 6.197,14.4969 6.197,14.8969 C6.197,15.2969 6.523,15.6219 6.922,15.6219 C7.321,15.6219 7.647,15.2969 7.647,14.8969 C7.647,14.4969 7.321,14.1719 6.922,14.1719 M6.922,16.9219 C5.806,16.9219 4.897,16.0139 4.897,14.8969 C4.897,13.7799 5.806,12.8719 6.922,12.8719 C8.038,12.8719 8.947,13.7799 8.947,14.8969 C8.947,16.0139 8.038,16.9219 6.922,16.9219" id="Fill-6" fill="#82D4BB"></path>
                            <path d="M13.9533,7.8287 C13.5543,7.8287 13.2283,8.1537 13.2283,8.5537 C13.2283,8.9537 13.5543,9.2787 13.9533,9.2787 C14.3523,9.2787 14.6783,8.9537 14.6783,8.5537 C14.6783,8.1537 14.3523,7.8287 13.9533,7.8287 M13.9533,10.5787 C12.8373,10.5787 11.9283,9.6707 11.9283,8.5537 C11.9283,7.4367 12.8373,6.5287 13.9533,6.5287 C15.0693,6.5287 15.9783,7.4367 15.9783,8.5537 C15.9783,9.6707 15.0693,10.5787 13.9533,10.5787" id="Fill-8" fill="#82D4BB"></path>
                            <path d="M12.6027,8.7934 L7.3277,13.5894 C7.7677,13.7264 8.1097,14.0744 8.2377,14.5184 L13.4097,9.8164 C12.9917,9.6364 12.6847,9.2544 12.6027,8.7934" id="Fill-10" fill="#82D4BB"></path>
                            <path d="M23.5123,7.5505 L28.9873,1.4995 L28.0223,0.6275 L22.5253,6.7045 C22.9793,6.8025 23.3473,7.1255 23.5123,7.5505" id="Fill-12" fill="#82D4BB"></path>
                            <path d="M21.0626,8.7592 C20.9356,8.5512 20.8586,8.3092 20.8586,8.0472 C20.8586,7.8372 20.9096,7.6392 20.9936,7.4612 L15.0276,7.7052 C15.2136,7.9392 15.3286,8.2312 15.3286,8.5542 C15.3286,8.7092 15.2966,8.8572 15.2496,8.9962 L21.0626,8.7592 Z" id="Fill-14" fill="#82D4BB"></path>
                            <path d="M5.5468,14.8968 C5.5468,14.7038 5.5878,14.5198 5.6588,14.3538 C4.2908,14.2728 1.5158,14.1118 0.7078,14.0808 C-0.1532,14.0478 -0.2652,15.3188 0.5758,15.3788 L5.7818,15.6658 C5.6328,15.4458 5.5468,15.1818 5.5468,14.8968" id="Fill-16" fill="#82D4BB"></path>
                            <path d="M22.2335,7.3223 C21.8345,7.3223 21.5085,7.6473 21.5085,8.0473 C21.5085,8.4473 21.8345,8.7723 22.2335,8.7723 C22.6325,8.7723 22.9585,8.4473 22.9585,8.0473 C22.9585,7.6473 22.6325,7.3223 22.2335,7.3223 M22.2335,10.0723 C21.1175,10.0723 20.2085,9.1643 20.2085,8.0473 C20.2085,6.9303 21.1175,6.0223 22.2335,6.0223 C23.3495,6.0223 24.2585,6.9303 24.2585,8.0473 C24.2585,9.1643 23.3495,10.0723 22.2335,10.0723" id="Fill-18" fill="#82D4BB"></path>
                        </g>
                    </g>
                </g>
            </g>
        </g>
    </g>
</svg>