<?xml version="1.0" encoding="UTF-8"?>
<svg width="70px" height="49px" viewBox="0 0 70 49" version="1.1" xmlns="http://www.w3.org/2000/svg" xmlns:xlink="http://www.w3.org/1999/xlink">
    <!-- Generator: Sketch 42 (36781) - http://www.bohemiancoding.com/sketch -->
    <title>Icon-RealTime</title>
    <desc>Created with Sketch.</desc>
    <defs>
        <polygon id="path-1" points="18.8877622 0.0934582485 0.0347719329 0.0934582485 0.0347719329 18.8772503 18.8877622 18.8772503 18.8877622 0.0934582485"></polygon>
    </defs>
    <g id="Page-1" stroke="none" stroke-width="1" fill="none" fill-rule="evenodd">
        <g id="Homepage" transform="translate(-376.000000, -5391.000000)">
            <g id="04-SECTION" transform="translate(-98.000000, 3342.000000)">
                <g id="03-Section" transform="translate(0.000000, 1909.000000)">
                    <g id="Icon-RealTime" transform="translate(474.000000, 140.000000)">
                        <g transform="translate(0.000000, 0.500000)">
                            <path d="M10.8301357,45.1966729 L10.8301357,40.4161271 L6.03293287,40.4161271 L6.03293287,45.1966729 C6.03293287,46.0986037 6.75368811,46.8682656 7.65693287,46.8682656 L12.5032825,46.8682656 C11.6000378,46.8682656 10.8301357,46.0986037 10.8301357,45.1966729" id="Fill-3" fill="#BAC7DB" opacity="0.373192631"></path>
                            <path d="M19.8884881,37.972145 C16.6063203,37.972145 15.9210056,34.6652285 15.9210056,34.1106379 L15.8231035,8.39964807 C15.8231035,8.17186802 15.889579,7.95992505 15.937649,7.7644057 L14.2341524,7.7644057 C12.6606699,7.7644057 11.4175091,8.94397393 11.4175091,10.5150697 L11.4175091,40.0882509 C11.4175091,40.6427438 11.8277189,41.0026949 12.3830196,41.0026949 L27.1912014,41.0026949 L43.8502224,41.0026949 L31.4874392,40.0250982 L26.396628,39.0475014 L19.8884881,37.972145 Z" id="Fill-7" fill="#BAC7DB" opacity="0.373192631"></path>
                            <path d="M7.13193287,41.4031576 L7.13193287,45.4873613 C7.13193287,46.0104733 7.55633846,46.4361189 8.07796084,46.4361189 L62.9534573,46.4361189 C63.4750797,46.4361189 63.8994853,46.0104733 63.8994853,45.4873613 L63.8994853,41.4031576 L7.13193287,41.4031576 Z M62.9534573,47.8047544 L8.07796084,47.8047544 C6.80386294,47.8047544 5.76727552,46.765178 5.76727552,45.4873613 L5.76727552,40.7188399 C5.76727552,40.340901 6.07273007,40.0345222 6.44965315,40.0345222 L64.581765,40.0345222 C64.9586881,40.0345222 65.2641427,40.340901 65.2641427,40.7188399 L65.2641427,45.4873613 C65.2641427,46.765178 64.2275552,47.8047544 62.9534573,47.8047544 L62.9534573,47.8047544 Z" id="Fill-9" fill="#3A5273"></path>
                            <path d="M7.22941399,41.5009173 L7.22941399,45.4873613 C7.22941399,45.9566077 7.61005734,46.3383593 8.07793147,46.3383593 L62.9535259,46.3383593 C63.4213021,46.3383593 63.8020434,45.9566077 63.8020434,45.4873613 L63.8020434,41.5009173 L7.22941399,41.5009173 Z M62.9535259,46.5338786 L8.07793147,46.5338786 C7.50256084,46.5338786 7.03449091,46.0644367 7.03449091,45.4873613 L7.03449091,41.305398 L63.9969664,41.305398 L63.9969664,45.4873613 C63.9969664,46.0644367 63.5288965,46.5338786 62.9535259,46.5338786 L62.9535259,46.5338786 Z M6.44962378,40.1322819 C6.12713427,40.1322819 5.86475664,40.3954509 5.86475664,40.7188399 L5.86475664,45.4873613 C5.86475664,46.7113124 6.85758182,47.7069947 8.07793147,47.7069947 L62.9535259,47.7069947 C64.1737776,47.7069947 65.1667007,46.7113124 65.1667007,45.4873613 L65.1667007,40.7188399 C65.1667007,40.3954509 64.9043231,40.1322819 64.5818336,40.1322819 L6.44962378,40.1322819 Z M62.9535259,47.9025141 L8.07793147,47.9025141 C6.75008531,47.9025141 5.66983357,46.8191413 5.66983357,45.4873613 L5.66983357,40.7188399 C5.66983357,40.287622 6.01963776,39.9367625 6.44962378,39.9367625 L64.5818336,39.9367625 C65.0118196,39.9367625 65.3616238,40.287622 65.3616238,40.7188399 L65.3616238,45.4873613 C65.3616238,46.8191413 64.281372,47.9025141 62.9535259,47.9025141 L62.9535259,47.9025141 Z" id="Fill-11" fill="#3A5273"></path>
                            <path d="M27.4153091,41.5009173 L27.4153091,42.3687299 C27.4153091,42.4920049 27.5157566,42.5923063 27.6392112,42.5923063 L43.3035469,42.5923063 C43.4269035,42.5923063 43.527351,42.4920049 43.527351,42.3687299 L43.527351,41.5009173 L27.4153091,41.5009173 Z M43.3035469,43.9609418 L27.6392112,43.9609418 C26.7599524,43.9609418 26.0446797,43.2467096 26.0446797,42.3687299 L26.0446797,40.8165996 C26.0446797,40.4386607 26.3515049,40.1322819 26.7299944,40.1322819 L44.2126657,40.1322819 C44.5911552,40.1322819 44.8979804,40.4386607 44.8979804,40.8165996 L44.8979804,42.3687299 C44.8979804,43.2467096 44.1827077,43.9609418 43.3035469,43.9609418 L43.3035469,43.9609418 Z" id="Fill-13" fill="#3A5273"></path>
                            <path d="M27.5132112,41.598677 L27.5132112,42.3687299 C27.5132112,42.4381393 27.5697007,42.4945466 27.6392112,42.4945466 L43.3035469,42.4945466 C43.3729594,42.4945466 43.429449,42.4381393 43.429449,42.3687299 L43.429449,41.598677 L27.5132112,41.598677 Z M43.3035469,42.690066 L27.6392112,42.690066 C27.4618126,42.690066 27.317407,42.5458705 27.317407,42.3687299 L27.317407,41.4031576 L43.6252531,41.4031576 L43.6252531,42.3687299 C43.6252531,42.5458705 43.4809455,42.690066 43.3035469,42.690066 L43.3035469,42.690066 Z M26.7299944,40.2300415 C26.4060364,40.2300415 26.1425818,40.4932106 26.1425818,40.8165996 L26.1425818,42.3687299 C26.1425818,43.1927462 26.8138965,43.8631821 27.6392112,43.8631821 L43.3035469,43.8631821 C44.1287636,43.8631821 44.8000783,43.1927462 44.8000783,42.3687299 L44.8000783,40.8165996 C44.8000783,40.4932106 44.5366238,40.2300415 44.2126657,40.2300415 L26.7299944,40.2300415 Z M43.3035469,44.0587014 L27.6392112,44.0587014 C26.7060084,44.0587014 25.9467776,43.3005752 25.9467776,42.3687299 L25.9467776,40.8165996 C25.9467776,40.3853817 26.2981483,40.0345222 26.7299944,40.0345222 L44.2126657,40.0345222 C44.6445119,40.0345222 44.9958825,40.3853817 44.9958825,40.8165996 L44.9958825,42.3687299 C44.9958825,43.3005752 44.2366517,44.0587014 43.3035469,44.0587014 L43.3035469,44.0587014 Z" id="Fill-15" fill="#3A5273"></path>
                            <path d="M52.9234657,3.60787943 C52.4705706,3.60787943 52.1045147,3.97340285 52.1045147,4.4256391 L52.1045147,8.51424196 C52.1045147,8.96647821 52.4705706,9.33200163 52.9234657,9.33200163 C53.3763608,9.33200163 53.7424168,8.96647821 53.7424168,8.51424196 L53.7424168,4.4256391 C53.7424168,3.97340285 53.3763608,3.60787943 52.9234657,3.60787943" id="Fill-17" fill="#000000"></path>
                            <path d="M64.0729385,10.3602281 C64.0729385,14.5795306 60.4786426,18 56.0449173,18 C51.611192,18 48.0169944,14.5795306 48.0169944,10.3602281 C48.0169944,6.14092558 51.611192,2.72045621 56.0449173,2.72045621 C60.4786426,2.72045621 64.0729385,6.14092558 64.0729385,10.3602281" id="Fill-19" fill="#56E0B5"></path>
                            <path d="M58.2070853,16.1615804 C53.8496587,16.1615804 50.3171552,12.6442851 50.3171552,8.30541752 C50.3171552,6.78838289 50.7501762,5.37262729 51.4980503,4.17174745 C49.501435,5.5318778 48.6447916,7.68327495 48.6447916,9.91512831 C48.6447916,14.2539959 52.593379,17.7029572 56.9508056,17.7029572 C59.7847776,17.7029572 62.0329035,17.2739878 63.2322042,14.2678778 C61.815365,15.6180367 60.3231413,16.1615804 58.2070853,16.1615804" id="Fill-21" fill="#000000" opacity="0.0415694963"></path>
                            <path d="M57.4428811,12.0199625 L57.4428811,9.48964888 C57.9997483,9.72133931 58.4546014,10.0272293 58.4546014,10.8335511 C58.4546014,11.519433 58.0925594,11.9179992 57.4428811,12.0199625 L57.4428811,12.0199625 Z M57.0622378,8.70180367 C56.458965,8.48858982 55.9392028,8.25689939 55.9391049,7.53386884 C55.9391049,6.84798697 56.4775664,6.59781996 57.0622378,6.55148187 L57.0622378,8.70180367 Z M57.4706853,8.84072016 L57.4706853,6.54209695 C58.1668671,6.57914786 58.4453007,6.88503788 58.6124196,6.88503788 C58.7794406,6.88503788 58.8815524,6.66263462 58.8815524,6.54209695 C58.8815524,6.23630468 58.138965,6.0045165 57.4705874,5.97675275 L57.4705874,5.70801141 C57.4705874,5.61523747 57.3592727,5.53184847 57.2571608,5.53184847 C57.1364476,5.53184847 57.0436364,5.61523747 57.0436364,5.70801141 L57.0436364,5.99522933 C56.2361399,6.05095234 55.3543357,6.42165703 55.3543357,7.58949409 C55.3543357,8.7759055 56.2268392,9.05393401 57.0436364,9.34124969 L57.0436364,12.0384391 C55.8926993,12.0106754 55.6884755,11.2784554 55.4656503,11.2784554 C55.3264336,11.2784554 55.1872168,11.4730949 55.1872168,11.6213963 C55.1872168,11.9550501 55.8741958,12.6131682 57.0437343,12.6224554 L57.0437343,12.9560114 C57.0437343,13.0486876 57.1365455,13.1320766 57.2571608,13.1320766 C57.3592727,13.1320766 57.4706853,13.0486876 57.4706853,12.9560114 L57.4706853,12.5944961 C58.3988951,12.4740562 59.0486713,11.8994248 59.0486713,10.7778281 C59.0486713,9.5080277 58.2411748,9.11884644 57.4706853,8.84072016 L57.4706853,8.84072016 Z" id="Fill-23" fill="#FFFFFF"></path>
                            <path d="M56.7196392,6.96042037 C56.281821,7.10246517 56.281821,7.40512912 56.281821,7.53387862 C56.281821,7.85804969 56.4153594,8.0359723 56.7196392,8.19199674 L56.7196392,6.96042037 Z M57.7854993,10.0631169 L57.7854993,11.5457401 C58.0066601,11.4065303 58.1120028,11.1732758 58.1120028,10.8335609 C58.1120028,10.4592391 58.0024503,10.2342941 57.7854993,10.0631169 L57.7854993,10.0631169 Z M57.2572196,13.4742452 C56.9504923,13.4742452 56.7010378,13.2417727 56.7010378,12.9560212 L56.7010378,12.9451699 C56.1410378,12.8844611 55.7403245,12.6936342 55.4894993,12.5299845 C55.0856531,12.26662 54.8446182,11.9269051 54.8446182,11.6214061 C54.8446182,11.304567 55.1159049,10.9363063 55.4657091,10.9363063 C55.6802126,10.9363063 55.8190378,11.0805996 55.9415133,11.2077849 C56.0949259,11.3671332 56.2934713,11.5735039 56.7010378,11.6581637 L56.7010378,9.58321466 C55.907835,9.29873401 55.0116392,8.89518208 55.0116392,7.58950387 C55.0116392,6.56273401 55.6366462,5.87049776 56.7013315,5.69120652 C56.710828,5.413178 56.9564643,5.18969939 57.2571217,5.18969939 C57.5369259,5.18969939 57.7842266,5.40565051 57.8108559,5.66217189 C58.442814,5.74067291 59.2241706,5.98497434 59.2241706,6.54210672 C59.2241706,6.82209043 59.0063385,7.22720652 58.6123804,7.22720652 C58.4731636,7.22720652 58.3574434,7.16825743 58.2348699,7.10598452 C58.1278629,7.05153238 57.9956951,6.98427373 57.8133035,6.93744684 L57.8133035,8.60278289 C58.4622965,8.85441629 59.3912895,9.34741833 59.3912895,10.7778379 C59.3912895,11.8878012 58.8207161,12.6395731 57.8133035,12.8794754 L57.8133035,12.9560212 C57.8133035,13.2320945 57.5534713,13.4742452 57.2572196,13.4742452 L57.2572196,13.4742452 Z" id="Fill-25" fill="#FFFFFF"></path>
                            <path d="M59.7196238,1.61907617 L59.7196238,1.61907617 C59.723442,1.89573605 59.8948685,2.13964644 60.1508825,2.24561792 C61.579372,2.83686843 62.812449,3.82883585 63.6950364,5.09394379 C63.8976937,5.38448554 64.2868545,5.47559756 64.5957357,5.30158534 C64.945442,5.10469735 65.0555818,4.64874623 64.8264909,4.31958941 C63.7905888,2.83178493 62.3404629,1.6653165 60.6605608,0.972982485 C60.2081552,0.786554786 59.7128685,1.13037556 59.7196238,1.61907617" id="Fill-27" fill="#3A5273"></path>
                            <g id="Group-31" transform="translate(47.580420, 0.004301)">
                                <mask id="mask-2" fill="white">
                                    <use xlink:href="#path-1"></use>
                                </mask>
                                <g id="Clip-30"></g>
                                <path d="M17.9013986,8.23538248 C17.6385315,8.35230305 17.4758182,8.6205556 17.4966713,8.90718697 C17.509986,9.09126843 17.5171329,9.27701181 17.5171329,9.46441711 C17.5171329,13.9674232 13.7925455,17.6181605 9.25801399,17.5060301 C5.01278322,17.401134 1.54362238,13.9617532 1.4094965,9.72348024 C1.2739021,5.43701181 4.51690909,1.86497108 8.6753007,1.46093035 C9.00581818,1.42886517 9.26574825,1.16540285 9.29257343,0.834975153 L9.29257343,0.834975153 C9.32703497,0.40991609 8.96822378,0.0555372709 8.54323077,0.0966940937 C3.6446014,0.57170835 -0.16848951,4.80567984 0.0431748252,9.86572057 C0.247006993,14.738747 4.20626573,18.6803193 9.08697902,18.8699731 C14.4545594,19.0784945 18.8877622,14.778633 18.8877622,9.46441711 C18.8877622,9.24739063 18.8803217,9.03212383 18.8656364,8.81871446 C18.8329371,8.34203829 18.3385315,8.04093849 17.9013986,8.23538248" id="Fill-29" fill="#3A5273" mask="url(#mask-2)"></path>
                            </g>
                            <path d="M59.3908294,22.262967 C59.0651091,22.3195699 58.8021441,22.6006289 58.8021441,22.9306656 L58.8021441,39.8042786 C58.8021441,39.9261849 58.8010671,40.1228774 58.6788853,40.1228774 C58.6788853,40.1228774 60.1727734,40.6707226 60.1727734,39.7787633 L60.1727734,22.9284171 C60.1727734,22.5083438 59.8428434,22.1881809 59.4285217,22.2606208 C59.4241161,22.2614029 59.395235,22.2621849 59.3908294,22.262967 Z" id="Fill-32" fill="#3A5273"></path>
                            <path d="M60.0748615,39.7787438 L60.0748615,22.9283976 C60.0748615,22.7428497 60.0008476,22.574312 59.8719105,22.4660921 C59.7550154,22.3680391 59.6036587,22.3292285 59.445449,22.3568945 C59.441435,22.3575788 59.4278266,22.3588497 59.4142182,22.3594363 L59.401393,22.3601206 C59.1182601,22.4094892 58.9000364,22.6551593 58.9000364,22.930646 L58.9000364,39.8042591 C58.9000364,39.9394607 58.9000364,40.2206175 58.6788755,40.2206175 C58.6788755,40.2206175 60.0748615,40.5554444 60.0748615,39.7787438 Z M58.6788755,40.0250982 C58.6942462,40.0090656 58.7042322,39.9338884 58.7042322,39.8042591 L58.7042322,22.930646 C58.7042322,22.5614077 58.9921622,22.2329352 59.3740783,22.1666542 C59.3772112,22.1660676 59.3911133,22.1647967 59.4051133,22.1641124 L59.4160783,22.1636236 C59.6305818,22.1271593 59.8370573,22.1814159 59.9978126,22.3163242 C60.1711972,22.4617906 60.2706657,22.684976 60.2706657,22.9283976 L60.2706657,39.7787438 C60.2706657,40.7770656 58.6788755,40.0250982 58.6788755,40.0250982 Z" id="Fill-34" fill="#3A5273"></path>
                            <path d="M12.1028629,36.8153255 L12.1028629,10.2310485 C12.1028629,9.08471853 13.0335203,8.15541507 14.1815203,8.15541507 L43.5913105,8.15541507 C43.9580517,8.15541507 44.2584154,7.864189 44.2691846,7.49807902 L44.2695762,7.48292627 C44.2807371,7.1017613 43.9744014,6.78677963 43.5925832,6.78677963 L14.2291007,6.78677963 C12.2978839,6.78677963 10.7322336,8.35015234 10.7322336,10.2786574 L10.7322336,36.8153255 C10.7322336,37.1932644 11.0390587,37.4996432 11.4175483,37.4996432 L11.4175483,37.4996432 C11.7960378,37.4996432 12.1028629,37.1932644 12.1028629,36.8153255" id="Fill-36" fill="#3A5273"></path>
                            <path d="M14.2291203,6.88456864 C12.3548825,6.88456864 10.8301552,8.4070778 10.8301552,10.278589 L10.8301552,36.8153548 C10.8301552,37.1387438 11.0936098,37.4019128 11.4175678,37.4019128 C11.741428,37.4019128 12.0049804,37.1387438 12.0049804,36.8153548 L12.0049804,10.2310778 C12.0049804,9.03264196 12.981358,8.05768473 14.1815399,8.05768473 L43.5913301,8.05768473 C43.9072601,8.05768473 44.1620014,7.81064603 44.1713021,7.49527332 L44.1716937,7.48012057 C44.176393,7.32243422 44.1182392,7.17325295 44.0081972,7.06004725 C43.8981552,6.94684155 43.7506168,6.88456864 43.5926028,6.88456864 L14.2291203,6.88456864 Z M11.4175678,37.5974322 C10.9857217,37.5974322 10.634351,37.2465727 10.634351,36.8153548 L10.634351,10.278589 C10.634351,8.29934664 12.2468965,6.68904929 14.2291203,6.68904929 L43.5926028,6.68904929 C43.8038755,6.68904929 44.001442,6.77243829 44.1486867,6.92386802 C44.2959315,7.07529776 44.3736657,7.27482525 44.3674,7.48579063 L44.3670084,7.50084562 C44.3545748,7.92277637 44.0138755,8.25320407 43.5913301,8.25320407 L14.1815399,8.25320407 C13.0893441,8.25320407 12.2007846,9.14047088 12.2007846,10.2310778 L12.2007846,36.8153548 C12.2007846,37.2465727 11.849414,37.5974322 11.4175678,37.5974322 L11.4175678,37.5974322 Z" id="Fill-38" fill="#3A5273"></path>
                            <path d="M44.4852741,35.4303935 L23.0016378,35.4303935 C22.6416517,35.4303935 22.3487287,35.706369 22.3487287,36.0658314 C22.3487287,36.4252937 22.6416517,36.7012692 23.0016378,36.7012692 L44.4852741,36.7012692 C44.8452601,36.7012692 45.1381832,36.4252937 45.1381832,36.0658314 C45.1381832,35.706369 44.8452601,35.4303935 44.4852741,35.4303935" id="Fill-44" fill="#3A5273"></path>
                            <path d="M32.7601958,32.8886029 L35.5993566,32.8886029 L35.5993566,20.9619226 L32.7601958,20.9619226 L32.7601958,32.8886029 Z M36.8720839,20.3430061 C36.8720839,19.9829572 36.5797483,19.6910468 36.2191748,19.6910468 L32.1403776,19.6910468 C31.7798042,19.6910468 31.4874685,19.9829572 31.4874685,20.3430061 L31.4874685,33.605279 C31.4874685,33.9654257 31.7798042,34.2572383 32.1403776,34.2572383 L36.2191748,34.2572383 C36.5797483,34.2572383 36.8720839,33.9654257 36.8720839,33.605279 L36.8720839,20.3430061 Z" id="Fill-45" fill="#3A5273"></path>
                            <path d="M29.3660378,23.7969923 L25.2706951,23.7969923 C24.9192266,23.7969923 24.6343315,24.0814729 24.6343315,24.4324301 C24.6343315,24.7833874 24.9192266,25.067868 25.2706951,25.067868 L28.7462196,25.067868 L28.7462196,32.888642 L25.9070587,32.888642 L25.9070587,27.0719413 C25.9070587,26.7209841 25.6221636,26.4365035 25.2706951,26.4365035 C24.9192266,26.4365035 24.6343315,26.7209841 24.6343315,27.0719413 L24.6343315,33.6053181 C24.6343315,33.965367 24.9266671,34.2572774 25.2872406,34.2572774 L29.3660378,34.2572774 C29.7266112,34.2572774 30.0189469,33.965367 30.0189469,33.6053181 L30.0189469,24.4489515 C30.0189469,24.0889026 29.7266112,23.7969923 29.3660378,23.7969923" id="Fill-46" fill="#3A5273"></path>
                            <path d="M43.0723315,14.6075829 L38.9935343,14.6075829 C38.6329608,14.6075829 38.3406252,14.8994933 38.3406252,15.2595422 L38.3406252,24.436536 C38.3406252,24.7874933 38.6255203,25.0719739 38.9769888,25.0719739 C39.3284573,25.0719739 39.6133524,24.7874933 39.6133524,24.436536 L39.6133524,15.9762183 L42.4525133,15.9762183 L42.4525133,32.888642 L39.6133524,32.888642 L39.6133524,27.0719413 C39.6133524,26.7209841 39.3284573,26.4365035 38.9769888,26.4365035 C38.6255203,26.4365035 38.3406252,26.7209841 38.3406252,27.0719413 L38.3406252,33.5075585 C38.3406252,33.8676073 38.6329608,34.1595177 38.9935343,34.1595177 L43.0723315,34.1595177 C43.4329049,34.1595177 43.7252406,33.8676073 43.7252406,33.5075585 L43.7252406,15.2595422 C43.7252406,14.8994933 43.4329049,14.6075829 43.0723315,14.6075829" id="Fill-47" fill="#3A5273"></path>
                            <path d="M69.1579049,47.9025336 L54.6683944,47.9025336 C54.2358629,47.9025336 53.8851776,47.5523585 53.8851776,47.1204562 C53.8851776,46.688554 54.2358629,46.3383788 54.6683944,46.3383788 L69.1579049,46.3383788 C69.5904364,46.3383788 69.9411217,46.688554 69.9411217,47.1204562 C69.9411217,47.5523585 69.5904364,47.9025336 69.1579049,47.9025336" id="Fill-48" fill="#3A5273"></path>
                            <path d="M10.393972,47.9065418 L3.14921678,47.9065418 C2.71668531,47.9065418 2.366,47.5563666 2.366,47.1244644 C2.366,46.6925621 2.71668531,46.342387 3.14921678,46.342387 L10.393972,46.342387 C10.8265035,46.342387 11.1771888,46.6925621 11.1771888,47.1244644 C11.1771888,47.5563666 10.8265035,47.9065418 10.393972,47.9065418" id="Fill-49" fill="#3A5273"></path>
                            <path d="M1.49300699,47.120466 C1.49300699,47.532132 1.15876923,47.8658835 0.746503497,47.8658835 C0.334237762,47.8658835 0,47.532132 0,47.120466 C0,46.7088 0.334237762,46.3750485 0.746503497,46.3750485 C1.15876923,46.3750485 1.49300699,46.7088 1.49300699,47.120466" id="Fill-50" fill="#3A5273"></path>
                        </g>
                    </g>
                </g>
            </g>
        </g>
    </g>
</svg>