<?xml version="1.0" encoding="UTF-8"?>
<svg width="57px" height="55px" viewBox="0 0 57 55" version="1.1" xmlns="http://www.w3.org/2000/svg" xmlns:xlink="http://www.w3.org/1999/xlink">
    <!-- Generator: Sketch 41.2 (35397) - http://www.bohemiancoding.com/sketch -->
    <title>Icon_SeniorDebt</title>
    <desc>Created with Sketch.</desc>
    <defs>
        <polygon id="path-1" points="18.7817338 0.0798576512 0.0740415385 0.0798576512 0.0740415385 22.6738674 18.7817338 22.6738674 18.7817338 0.0798576512"></polygon>
    </defs>
    <g id="Page-1" stroke="none" stroke-width="1" fill="none" fill-rule="evenodd">
        <g id="Homepage" transform="translate(-375.000000, -3741.000000)">
            <g id="04-SECTION" transform="translate(-98.000000, 3342.000000)">
                <g id="01-Section" transform="translate(472.000000, 312.000000)">
                    <g id="Icon_SeniorDebt" transform="translate(1.000000, 87.000000)">
                        <g>
                            <path d="M17.682579,51.8347304 C8.86599436,51.6281379 10.8004867,45.6990009 10.8004867,45.6990009 C10.8004867,45.6990009 11.0068559,12.2103621 10.8119841,8.58936566 C10.800779,8.38110943 10.7983431,8.18596708 10.8029226,8.00217705 L8.37608667,8.00217705 C8.37608667,8.00217705 6.03762513,7.80644751 6.23249692,11.427444 C6.42736872,15.0484404 6.22099949,48.5370792 6.22099949,48.5370792 C6.22099949,48.5370792 4.28650718,54.4662162 13.1030918,54.6728087 C21.9196764,54.8794012 50.0786508,54.553218 50.0786508,54.553218 C50.0786508,54.553218 50.7312764,54.5861005 51.3485328,54.2608959 C42.7872303,53.524855 24.3572303,51.9912162 17.682579,51.8347304" id="Fill-3" fill="#BAC7DB" opacity="0.230585354"></path>
                            <path d="M26.6284903,13.8187891 L13.6070595,13.8187891 C13.1293313,13.8187891 12.8108133,14.1387091 12.8108133,14.6186379 C12.8108133,15.0985667 13.1293313,15.4184867 13.6070595,15.4184867 L26.6284903,15.4184867 C27.1063159,15.4184867 27.4248338,15.0985667 27.4248338,14.6186379 C27.4248338,14.1387091 27.1063159,13.8187891 26.6284903,13.8187891" id="Fill-5" fill="#3A5273"></path>
                            <path d="M43.2318985,1.83672598 C40.3901805,5.16001779 35.6706779,3.69615658 35.6706779,3.69615658 L35.6706779,13.4140302 C35.6706779,18.720258 43.2318985,22.4185676 43.2318985,22.4185676 C43.2318985,22.4185676 50.793119,18.720258 50.793119,13.4140302 L50.793119,5.49031139 C50.793119,5.49031139 46.0736164,5.16001779 43.2318985,1.83672598" id="Fill-7" fill="#82D4BB"></path>
                            <path d="M38.2889072,13.0902153 L38.2889072,4.12227936 C37.1196764,4.22073132 36.2427533,4.08567794 36.2427533,4.08567794 L36.2427533,13.0902153 C36.2427533,18.3964431 43.8102097,22.0947527 43.8102097,22.0947527 C43.8102097,22.0947527 44.2104764,21.8972616 44.8301687,21.5288986 C42.7650149,20.3013808 38.2889072,17.1716655 38.2889072,13.0902153" id="Fill-9" fill-opacity="0.11438519" fill="#000000"></path>
                            <path d="M47.5145472,9.2744484 L47.5143523,9.2744484 C47.3190908,9.2744484 47.1357164,9.3569484 46.9979421,9.49562278 L44.0118241,12.4977224 L42.9399318,11.4229715 C42.6552241,11.1374021 42.1919164,11.1380872 41.9072087,11.4238523 C41.7691421,11.5626246 41.6931421,11.7470996 41.6931421,11.9431228 C41.6931421,12.139048 41.7691421,12.3235231 41.9072087,12.4619039 L43.4954138,14.0569039 C43.6333831,14.1954804 43.8167574,14.2719128 44.0118241,14.2719128 C44.2069882,14.2719128 44.39046,14.1954804 44.5284292,14.0570018 L48.0307626,10.5390569 C48.1689267,10.4004804 48.2451215,10.2162011 48.2451215,10.0200801 C48.2451215,9.82386121 48.1689267,9.63370996 48.0311523,9.49562278 C47.8929882,9.35675267 47.7097113,9.2744484 47.5145472,9.2744484" id="Fill-11" fill="#FFFFFF"></path>
                            <path d="M35.6562477,22.5840569 L14.4170733,22.5840569 L14.4170733,19.4523843 L31.5789451,19.4523843 C32.196299,19.4523843 32.5919862,18.7928737 32.3037708,18.2446352 L32.2963656,18.2306406 C32.1534272,17.9587722 31.8725195,17.7886833 31.5663759,17.7886833 L13.6070887,17.7886833 C13.1934733,17.7886833 12.858099,18.1254359 12.858099,18.5409698 L12.858099,23.4954715 C12.858099,23.9110053 13.1934733,24.247758 13.6070887,24.247758 L35.6562477,24.247758 C36.3704528,24.247758 36.7497708,23.4005427 36.2758426,22.8639502 L36.2758426,22.8639502 C36.1186785,22.6859342 35.8931144,22.5840569 35.6562477,22.5840569" id="Fill-15" fill="#3A5273"></path>
                            <path d="M50.3614682,32.4683986 L48.958099,32.4683986 C48.5007349,32.4683986 48.1298938,32.8408719 48.1298938,33.3002491 L48.1298938,33.3002491 C48.1298938,33.7596263 48.5007349,34.1320996 48.958099,34.1320996 L50.4823862,34.1320996 C50.9051605,34.1320996 51.2478426,34.47629 51.2478426,34.9009253 L51.2478426,50.0762278 C51.2478426,51.8018772 49.9057605,53.2600623 48.1886477,53.3193683 C46.662899,53.3720196 45.3698272,52.3318149 45.0050272,50.9216815 L44.9145092,39.7237989 L44.9145092,34.1320996 L44.9145092,32.4683986 L44.9145092,28.0087989 C44.9145092,27.6241904 44.6431503,27.2994751 44.2690938,27.2171708 C44.2617862,27.215605 44.2545759,27.2139413 44.2472682,27.2122776 C43.7414785,27.096895 43.258099,27.4767082 43.258099,27.9977402 L43.258099,33.3248132 L43.258099,50.1218327 C43.258099,51.3216548 43.7134169,52.4328114 44.5097605,53.3135943 L9.86827846,53.3135943 L9.8379759,53.317411 C8.08598103,53.317411 6.62220154,51.8815391 6.62220154,50.1218327 L6.62220154,9.32895907 C6.62220154,8.86645018 6.9955759,8.49153025 7.45605795,8.49153025 L30.3965605,8.49153025 C30.8271297,8.49153025 31.1760477,8.14097865 31.1760477,7.7086121 C31.1760477,7.27624555 30.8271297,6.92569395 30.3965605,6.92569395 L7.47924769,6.92569395 C6.14496051,6.92569395 5.06322718,8.01209075 5.06322718,9.35234875 L5.06322718,50.1218327 C5.06322718,52.7494039 7.18391949,54.8794306 9.7999759,54.8794306 L48.0933554,54.8794306 C50.6965503,54.8794306 52.8068169,52.7598754 52.8068169,50.1452224 L52.8068169,34.9245107 C52.8068169,33.5680071 51.7120272,32.4683986 50.3614682,32.4683986" id="Fill-17" fill="#3A5273"></path>
                            <g id="Group-21" transform="translate(34.882051, 0.018007)">
                                <mask id="mask-2" fill="white">
                                    <use xlink:href="#path-1"></use>
                                </mask>
                                <g id="Clip-20"></g>
                                <path d="M16.7450313,15.0760383 C15.7613185,18.9323995 10.7405441,20.6041254 9.43967744,21.2330044 C8.80400564,20.9268835 7.13980051,20.0874973 5.50911333,18.8511717 C3.6622159,17.4510205 1.4381441,15.2478888 1.4381441,12.7033069 L1.4381441,4.16441014 C3.09455436,4.2456379 6.72832872,4.1303532 9.42788769,1.71710587 C12.127739,4.13054893 15.761221,4.24554004 17.4176313,4.16441014 L17.4176313,4.65676779 C17.4176313,5.03511299 17.7229954,5.34182117 18.0996826,5.34182117 L18.0996826,5.34182117 C18.4763697,5.34182117 18.7817338,5.03511299 18.7817338,4.65676779 L18.7817338,3.41789769 C18.7817338,3.21962367 18.6857595,3.03103826 18.53678,2.90097598 C18.3878005,2.7709137 18.1848415,2.71219484 17.9889954,2.73959698 C17.9385236,2.7467411 12.9006979,3.41486388 9.94127744,0.297185943 C9.89596974,0.249427936 9.84530308,0.205878114 9.78820564,0.173289146 C9.49716462,0.00701690391 9.15565179,0.0722927046 8.94684667,0.292684164 C5.98820564,3.41545107 0.947651795,2.74683897 0.897959487,2.73969484 C0.702210769,2.71160765 0.481226154,2.77022865 0.331856923,2.90038879 C0.182585128,3.03045107 0.0740415385,3.21923221 0.0740415385,3.41789769 L0.0740415385,12.7033069 C0.0740415385,18.5550329 8.77399538,22.4528888 9.14337487,22.6159315 C9.23087231,22.6545881 9.3356159,22.6738674 9.42905692,22.6738674 C9.52259538,22.6738674 9.62168769,22.6545881 9.70908769,22.6159315 C10.046021,22.467177 16.7968672,20.411919 18.0689903,15.40046 C18.1759749,14.9789564 17.8653492,14.5675329 17.4322467,14.5675329 C17.1271749,14.5675329 16.820739,14.7792144 16.7450313,15.0760383" id="Fill-19" fill="#3A5273" mask="url(#mask-2)"></path>
                            </g>
                            <path d="M52.9817241,7.80460765 L52.9817241,7.80460765 C52.6050369,7.80460765 52.2996728,8.11131584 52.2996728,8.48966103 L52.2996728,11.8170632 C52.2996728,12.1954084 52.6050369,12.5021165 52.9817241,12.5021165 L52.9817241,12.5021165 C53.3584113,12.5021165 53.6637754,12.1954084 53.6637754,11.8170632 L53.6637754,8.48966103 C53.6637754,8.11131584 53.3584113,7.80460765 52.9817241,7.80460765" id="Fill-22" fill="#3A5273"></path>
                            <path d="M48.2450728,39.2536762 L44.3099292,39.2536762 C43.9332421,39.2536762 43.6278779,38.946968 43.6278779,38.5686228 C43.6278779,38.1902776 43.9332421,37.8835694 44.3099292,37.8835694 L48.2450728,37.8835694 C48.62176,37.8835694 48.9271241,38.1902776 48.9271241,38.5686228 C48.9271241,38.946968 48.62176,39.2536762 48.2450728,39.2536762" id="Fill-24" fill="#41547D"></path>
                            <path d="M48.2450728,43.6575907 L44.3099292,43.6575907 C43.9332421,43.6575907 43.6278779,43.3508826 43.6278779,42.9725374 C43.6278779,42.5941922 43.9332421,42.287484 44.3099292,42.287484 L48.2450728,42.287484 C48.62176,42.287484 48.9271241,42.5941922 48.9271241,42.9725374 C48.9271241,43.3508826 48.62176,43.6575907 48.2450728,43.6575907" id="Fill-26" fill="#41547D"></path>
                            <path d="M48.2450728,48.1456788 L44.3099292,48.1456788 C43.9332421,48.1456788 43.6278779,47.8389706 43.6278779,47.4606254 C43.6278779,47.0822802 43.9332421,46.7755721 44.3099292,46.7755721 L48.2450728,46.7755721 C48.62176,46.7755721 48.9271241,47.0822802 48.9271241,47.4606254 C48.9271241,47.8389706 48.62176,48.1456788 48.2450728,48.1456788" id="Fill-28" fill="#41547D"></path>
                            <path d="M32.4266569,40.0527518 L31.2735031,38.9064617 L31.2735031,38.906266 L26.0171287,33.6143265 C25.929339,33.4379742 25.7654518,33.3492109 25.5898723,33.3492109 L25.4142928,33.3492109 C25.1508262,33.3492109 24.9513749,33.4379742 24.7757954,33.6143265 L19.4837595,38.906266 L19.4837595,38.9064617 L18.3662672,40.0527518 L16.973421,38.6417375 L25.4083492,30.1755543 L33.8345082,38.6417375 L32.4266569,40.0527518 Z M35.6870569,38.0245044 L26.0287236,28.3236593 C25.8530467,28.1472091 25.6775646,28.0590329 25.4140979,28.0590329 C25.1507287,28.0590329 24.9750518,28.1472091 24.7995697,28.3236593 L15.1412364,38.0245044 C14.78998,38.3772091 14.78998,38.906266 15.1412364,39.2591664 L17.7753185,41.9048425 C17.9508979,42.0811948 18.1264774,42.169371 18.3898467,42.169371 C18.6533133,42.169371 18.8394159,42.0811948 19.0149954,41.9048425 L19.2888877,41.6402162 L19.2888877,46.5609546 C19.2888877,47.0473425 19.6815544,47.4417375 20.1658108,47.4417375 L20.1658108,47.4417375 C20.6501646,47.4417375 21.0427338,47.0473425 21.0427338,46.5609546 L21.0427338,39.8763016 L25.4274467,35.4668087 L29.8119646,39.8763016 L29.8119646,45.6801717 L23.3811954,45.6801717 C22.896939,45.6801717 22.5042723,46.0744689 22.5042723,46.5609546 L22.5042723,46.5609546 C22.5042723,47.0473425 22.896939,47.4417375 23.3811954,47.4417375 L30.6823595,47.4417375 C31.1703185,47.4417375 31.5658108,47.0444066 31.5658108,46.5543977 L31.5658108,41.6401183 L31.8265492,41.9047447 C32.0021287,42.081097 32.1763441,42.1692731 32.4397133,42.1692731 C32.70318,42.1692731 32.8780774,42.081097 33.0536569,41.9047447 L35.6873492,39.2590685 C35.8630262,39.0826183 35.950621,38.906266 35.950621,38.6417375 C35.950621,38.3772091 35.8626364,38.2007589 35.6870569,38.0245044 L35.6870569,38.0245044 Z" id="Fill-30" fill="#3A5273"></path>
                            <path d="M56.1373805,54.9201423 L41.7168677,54.9201423 C41.2863959,54.9201423 40.9373805,54.5695907 40.9373805,54.1372242 C40.9373805,53.7048577 41.2863959,53.354306 41.7168677,53.354306 L56.1373805,53.354306 C56.5678523,53.354306 56.9168677,53.7048577 56.9168677,54.1372242 C56.9168677,54.5695907 56.5678523,54.9201423 56.1373805,54.9201423" id="Fill-32" fill="#3A5273"></path>
                            <path d="M10.3444769,54.8794306 L3.13422051,54.8794306 C2.70374872,54.8794306 2.35473333,54.528879 2.35473333,54.0965125 C2.35473333,53.6641459 2.70374872,53.3135943 3.13422051,53.3135943 L10.3444769,53.3135943 C10.7749487,53.3135943 11.1239641,53.6641459 11.1239641,54.0965125 C11.1239641,54.528879 10.7749487,54.8794306 10.3444769,54.8794306" id="Fill-34" fill="#3A5273"></path>
                            <path d="M1.48589744,54.0925 C1.48589744,54.5046085 1.15325128,54.8387189 0.742948718,54.8387189 C0.332646154,54.8387189 0,54.5046085 0,54.0925 C0,53.6803915 0.332646154,53.3462811 0.742948718,53.3462811 C1.15325128,53.3462811 1.48589744,53.6803915 1.48589744,54.0925" id="Fill-36" fill="#3A5273"></path>
                        </g>
                    </g>
                </g>
            </g>
        </g>
    </g>
</svg>