<?xml version="1.0" encoding="UTF-8"?>
<svg width="74px" height="74px" viewBox="0 0 74 74" version="1.1" xmlns="http://www.w3.org/2000/svg" xmlns:xlink="http://www.w3.org/1999/xlink">
    <!-- Generator: Sketch 42 (36781) - http://www.bohemiancoding.com/sketch -->
    <title>Icon</title>
    <desc>Created with Sketch.</desc>
    <defs>
        <polygon id="path-1" points="25.9598 0.023 0 0.023 0 30.9996 25.9598 30.9996 25.9598 0.023"></polygon>
        <polygon id="path-3" points="0 31.9773 25.96 31.9773 25.96 1.0003 0 1.0003"></polygon>
    </defs>
    <g id="website" stroke="none" stroke-width="1" fill="none" fill-rule="evenodd">
        <g id="4" transform="translate(-1008.000000, -395.000000)">
            <g id="03-PRODUCT" transform="translate(-311.000000, -158.000000)">
                <g id="Icon" transform="translate(1319.000000, 553.000000)">
                    <rect id="Rectangle-9" fill="#FCFDFF" x="0" y="0" width="74" height="74" rx="37"></rect>
                    <g id="Securite" transform="translate(24.000000, 21.000000)">
                        <g>
                            <g id="Group-3" transform="translate(0.000000, 0.977300)">
                                <mask id="mask-2" fill="white">
                                    <use xlink:href="#path-1"></use>
                                </mask>
                                <g id="Clip-2"></g>
                                <path d="M24.5918,5.3696 L24.5918,14.5206 C24.5918,19.5156 22.1498,24.2576 18.0588,27.2046 C16.4708,28.3496 14.7618,29.1876 12.9798,29.6976 C11.1988,29.1886 9.4908,28.3496 7.9008,27.2046 C3.8098,24.2576 1.3668,19.5156 1.3668,14.5206 L1.3668,5.3696 C7.9728,5.2056 11.6348,2.7016 12.9798,1.5466 C14.3228,2.7016 17.9858,5.2056 24.5918,5.3696 M25.2768,4.1036 C17.2328,4.1036 13.6488,0.3846 13.5008,0.2276 C13.2498,-0.0474 12.7068,-0.0444 12.4588,0.2276 C12.4228,0.2666 8.7808,4.1026 0.6838,4.1026 C0.3068,4.1026 -0.0002,4.3886 -0.0002,4.7406 L-0.0002,14.5206 C-0.0002,19.9076 2.6408,25.0256 7.0638,28.2126 C8.8478,29.4976 10.7738,30.4266 12.7858,30.9736 C12.8478,30.9916 12.9128,30.9996 12.9798,30.9996 C13.0458,30.9996 13.1118,30.9916 13.1718,30.9736 C15.1878,30.4256 17.1128,29.4966 18.8968,28.2126 C23.3198,25.0256 25.9598,19.9066 25.9598,14.5206 L25.9598,4.7406 C25.9598,4.3896 25.6538,4.1036 25.2768,4.1036" id="Fill-1" fill="#3A5273" mask="url(#mask-2)"></path>
                            </g>
                            <path d="M5.2568,15.5847 L5.2568,9.6567 C8.8448,9.1537 11.4248,7.9827 12.9798,7.0687 C14.5348,7.9827 17.1158,9.1537 20.7028,9.6567 L20.7028,15.5847 C20.7028,19.3827 18.8658,22.9727 15.7898,25.1887 C14.8928,25.8357 13.9458,26.3517 12.9798,26.7237 C12.0108,26.3507 11.0668,25.8347 10.1698,25.1887 C7.0938,22.9717 5.2568,19.3817 5.2568,15.5847 M4.5278,8.5297 C4.2038,8.5677 3.9598,8.8257 3.9598,9.1297 L3.9598,15.5857 C3.9598,19.7547 5.9858,23.7027 9.3768,26.1477 C10.4438,26.9157 11.5768,27.5187 12.7468,27.9397 C12.8218,27.9667 12.9008,27.9807 12.9798,27.9807 C13.0598,27.9807 13.1378,27.9667 13.2128,27.9397 C14.3818,27.5197 15.5158,26.9167 16.5828,26.1477 C19.9748,23.7027 21.9998,19.7547 21.9998,15.5857 L21.9998,9.1297 C21.9998,8.8257 21.7558,8.5677 21.4318,8.5297 C17.5828,8.0797 14.9068,6.8217 13.3398,5.8457 C13.1218,5.7097 12.8408,5.7087 12.6188,5.8457 C11.0538,6.8217 8.3778,8.0797 4.5278,8.5297" id="Fill-4" fill="#3A5273"></path>
                            <mask id="mask-4" fill="white">
                                <use xlink:href="#path-3"></use>
                            </mask>
                            <g id="Clip-7"></g>
                            <path d="M10.996,19.1253 L15.162,19.1253 L15.162,16.8273 L10.996,16.8273 L10.996,19.1253 Z M11.866,15.6853 L11.866,14.8703 C11.864,14.5483 11.989,14.2453 12.217,14.0163 C12.447,13.7843 12.753,13.6573 13.079,13.6573 C13.75,13.6573 14.296,14.2033 14.296,14.8733 L14.296,15.6853 L11.866,15.6853 Z M15.438,15.7073 L15.438,14.8703 C15.438,13.5673 14.378,12.5073 13.075,12.5073 C11.772,12.5073 10.713,13.5673 10.713,14.8703 L10.713,15.7073 C10.21,15.8163 9.843,16.2633 9.843,16.7893 L9.843,19.1713 C9.851,19.7793 10.35,20.2743 10.955,20.2743 L15.203,20.2743 C15.813,20.2743 16.309,19.7793 16.309,19.1693 L16.309,16.7893 C16.309,16.2673 15.941,15.8193 15.438,15.7073 L15.438,15.7073 Z" id="Fill-6" fill="#82D4BB" mask="url(#mask-4)"></path>
                        </g>
                    </g>
                </g>
            </g>
        </g>
    </g>
</svg>